Tangled (2010) 
Alternatieve titel: Rapunzel 

Momenteel te zien in 93 bioscopen 

Verenigde Staten
Animatie / Fantasy
100 minuten

geregisseerd door Nathan Greno en Byron Howard
met de stemmen van Mandy Moore, Zachary Levi en Donna Murphy

Dutch:
Het verhaal over Prinses Rapunzel, die als baby is gestolen uit het paleis van haar ouders en door een heks genaamd Mother Gothel wordt opgesloten in een verborgen hoge toren, waar ze onmogelijk uit kan ontsnappen. Ze snakt naar avontuur in haar leven en droomt ervan de toren te verlaten om te zien waar de vreemde lichten, die ze elk jaar op haar verjaardag ziet, vandaan komen. Dat avontuur kan eindelijk beginnen als de knapste, maar ook beruchtste, crimineel van het koninkrijk, Flynn Rider, langs haar toren komt en naar boven klimt om zich te verstoppen. Ze maken samen de afspraak om uit de toren te ontsnappen en op zoek te gaan naar de lichten. Onderweg ontmoeten ze vele hilarische figuren en beleven ze een magisch avontuur.

English:
After receiving the healing powers from a magical flower, the baby Princess Rapunzel is kidnapped from the palace in the middle of the night by Mother Gothel. Mother Gothel knows that the flower's magical powers are now growing within the golden hair of Rapunzel, and to stay young, she must lock Rapunzel in her hidden tower. Rapunzel is now a teenager and her hair has grown to a length of 70-feet. The beautiful Rapunzel has been in the tower her entire life, and she is curious of the outside world. One day, the bandit Flynn Ryder scales the tower and is taken captive by Rapunzel. Rapunzel strikes a deal with the charming thief to act as her guide to travel to the place where the floating lights come from that she has seen every year on her birthday. Rapunzel is about to have the most exciting and magnificent journey of her life.

******************************************
Info:

Release name.......: Tangled.2010.CAM.READ.NFO.XViD-iNK 

Source.............: CAM

Video
ID                               : 0
Format                           : xvid
Codec ID                         : xvid
Duration                         : 1h 29mn
Bit rate                         : 1 200 Kbps
Width                            : 720 pixels
Height                           : 576 pixels
Display aspect ratio             : 5:4
Frame rate                       : 25.000 fps
Standard                         : PAL
Bits/(Pixel*Frame)               : 0.116
Stream size                      : 773 MiB (89%)

Audio
ID                               : 1
Format                           : MPEG Audio
Format version                   : Version 1
Format profile                   : Layer 3
Mode                             : Joint stereo
Mode extension                   : MS Stereo
Codec ID                         : 55
Codec ID/Hint                    : MP3
Duration                         : 1h 29mn
Bit rate mode                    : Constant
Bit rate                         : 128 Kbps
Channel(s)                       : 2 channels
Sampling rate                    : 48.0 KHz
Compression mode                 : Lossy
Stream size                      : 82.4 MiB (10%)
Alignment                        : Aligned on interleaves
Interleave, duration             : 24 ms (0.60 video frame)
Interleave, preload duration     : 24 ms

Subtitles..........: NL cust. Fast Gollums Twilight Release Team, weer geheel op audio, top werk!

Bewerking..........: Dejavu


Het is en blijft een CAM, klachten bij de locale bioscoop graag.

  
http://www.moviemeter.nl/film/31059  
http://www.imdb.com/title/tt0398286

******************************************

Brought to you by 

Black Pearl

******************************************

		